<?xml version="1.0" encoding="UTF-8"?>
<svg id="Capa_2" data-name="Capa 2" xmlns="http://www.w3.org/2000/svg" viewBox="0 0 445.94 190.45">
  <defs>
    <style>
      .cls-1 {
        fill: #883296;
      }

      .cls-1, .cls-2, .cls-3, .cls-4, .cls-5, .cls-6 {
        stroke-width: 0px;
      }

      .cls-2 {
        fill: #38cdf8;
      }

      .cls-3 {
        fill: #9fcf84;
      }

      .cls-4 {
        fill: #ff8ebc;
      }

      .cls-5 {
        fill: #ffa47b;
      }

      .cls-6 {
        fill: #f80010;
      }
    </style>
  </defs>
  <g id="Capa_1-2" data-name="Capa 1">
    <g>
      <g>
        <path class="cls-1" d="m162.61,20h1.48c6.06,0,11.32,2.95,15.78,8.86,2.27,3.63,3.41,7.12,3.41,10.45v2.27c0,4.16-1.67,8.33-5,12.49-4.69,4.92-9.88,7.38-15.56,7.38h-1.48c-4.31,0-8.52-1.7-12.6-5.11-4.16-4.24-6.25-8.74-6.25-13.51v-2.16c0-4.62,1.89-9.2,5.68-13.74,4.47-4.62,9.31-6.93,14.54-6.93Z"/>
        <path class="cls-2" d="m164.54,65.99h1.25c6.36,0,11.54,3.33,15.56,9.99,1.14,1.97,1.7,5.45,1.7,10.45,1.29,49.36,1.97,78.43,2.04,87.21,0,4.85-2.54,9.39-7.61,13.63-3.33,2.12-6.55,3.18-9.65,3.18h-.91c-5.83,0-10.75-2.84-14.76-8.52-1.89-2.35-2.84-6.93-2.84-13.74-1.29-53.98-1.93-82.52-1.93-85.62,0-4.62,2.35-9.01,7.04-13.17,3.48-2.27,6.85-3.41,10.11-3.41Z"/>
        <path class="cls-4" d="m233.47,39.99h.91c6.66,0,11.96,3.56,15.9,10.67,1.44,3.18,2.16,9.81,2.16,19.87.07,0,.19,1.4.34,4.2l1.25.11c14.38,0,22.71.45,24.98,1.36,4.62,1.89,7.99,4.81,10.11,8.74,1.29,2.65,1.93,5.22,1.93,7.72v.91c0,6.13-3.18,11.24-9.54,15.33-2.95,1.36-5.34,2.04-7.15,2.04l-21.35-.45v11.7c0,4.39-.04,9.8-.11,16.24,0,6.74,1.17,11.74,3.52,14.99,1.29.91,3.03,1.36,5.22,1.36,5.37,0,12.91-2.27,22.6-6.81,1.89-.45,3.44-.68,4.66-.68h1.48c6.59,0,11.85,3.48,15.78,10.45.91,2.58,1.36,4.81,1.36,6.7v1.02c0,6.06-3.1,11.17-9.31,15.33-13.02,6.44-25.29,9.65-36.79,9.65-14.99,0-26.69-5.87-35.09-17.6-6.06-9.39-9.08-20.17-9.08-32.36.07-9.69.11-17.68.11-23.96v-6.81h-1.7c-5.53,0-10.3-2.46-14.31-7.38-2.27-3.25-3.41-6.59-3.41-9.99v-1.14c0-6.59,3.52-11.85,10.56-15.78,2.5-.91,4.69-1.36,6.59-1.36h1.93l-.91-16.92c0-4.84,2.42-9.43,7.27-13.74,3.48-2.27,6.85-3.41,10.11-3.41Z"/>
        <path class="cls-6" d="m429.24,119.37c0-12.42-3.18-23.47-9.54-33.16-11.96-16.65-29.87-24.98-53.71-24.98h-2.84c-19.38,0-34.41,6.32-45.08,18.96-8.25,10.75-12.38,22.52-12.38,35.32v4.54c0,1.44.11,3.37.34,5.79,1.51,12.87,5.71,24.64,12.6,35.32,2.12,3.71,5.79,8.14,11.02,13.29,10.98,10.67,24.72,16.01,41.22,16.01,8.25,0,16.16-1.1,23.73-3.29,18.32-5.98,27.48-14,27.48-24.07v-1.14c0-1.89-.45-4.12-1.36-6.7-3.94-7.04-9.2-10.56-15.78-10.56h-1.14c-2.65,0-5.53.83-8.63,2.5-5.9,5-13.82,7.5-23.73,7.5h-2.04c-4.01,0-7.53-.91-10.56-2.73-5.07-3.41-8.48-6.96-10.22-10.67,44.44-1.21,66.66-2.04,66.66-2.5,9.31-2.95,13.97-9.42,13.97-19.42Zm-41.11-14.99c-25.74.91-40.39,1.36-43.95,1.36h-.11c.07-.68.19-1.02.34-1.02,2.65-5.22,9.35-7.83,20.1-7.83s18.92,2.38,23.62,7.15v.34Z"/>
        <g>
          <path class="cls-3" d="m16.1,4h0c6.69,0,12.11,5.42,12.11,12.11v60.73h.31c10.94-7.97,23.24-11.95,36.89-11.95,18.7,0,34.6,7.9,47.69,23.69,8.31,11.22,12.47,23.21,12.47,35.95v2.39c0,18.43-7.97,34.19-23.9,47.28-11.22,8.17-23.31,12.26-36.26,12.26h-.73c-13.23,0-25.29-3.98-36.16-11.95h-.31c0,6.6-5.35,11.95-11.95,11.95h-.31c-6.6,0-11.95-5.35-11.95-11.95V16.1c0-6.69,5.42-12.11,12.11-12.11Zm12.11,121.78c0,13.09,6.3,23.76,18.91,32,5.89,2.98,11.81,4.47,17.77,4.47,11.85,0,21.68-5.06,29.51-15.17,4.64-6.65,6.96-13.37,6.96-20.16v-2.39c0-10.25-4.61-19.39-13.82-27.43-6.72-5.33-14.44-8-23.17-8-12.19,0-22.48,5.85-30.86,17.56-3.53,6.58-5.3,12.95-5.3,19.12Z"/>
          <path class="cls-3" d="m65.4,190.45h-.73c-12.16,0-23.51-3.21-33.81-9.55-2.47,5.62-8.09,9.55-14.61,9.55h-.31c-8.79,0-15.94-7.15-15.94-15.95V16.1C0,7.22,7.22,0,16.1,0s16.1,7.22,16.1,16.1v53.57c10.07-5.83,21.21-8.78,33.2-8.78,19.86,0,36.94,8.46,50.77,25.14l.13.17c8.79,11.87,13.25,24.77,13.25,38.33v2.39c0,19.59-8.53,36.54-25.36,50.37l-.18.14c-11.87,8.64-24.86,13.03-38.62,13.03Zm-41.19-19.94h5.61l1.05.77c10.12,7.42,21.5,11.18,33.8,11.18h.73c11.99,0,23.37-3.84,33.82-11.43,15.04-12.39,22.35-26.82,22.35-44.12v-2.39c0-11.78-3.91-23.05-11.62-33.49-12.39-14.91-26.97-22.16-44.55-22.16-12.72,0-24.34,3.76-34.54,11.18l-1.05.76h-5.61V16.1c0-4.47-3.64-8.11-8.11-8.11s-8.11,3.64-8.11,8.11v158.41c0,4.39,3.57,7.95,7.95,7.95h.31c4.39,0,7.95-3.57,7.95-7.95v-4Zm40.67-4.27c-6.56,0-13.15-1.65-19.57-4.9l-.38-.22c-13.75-8.99-20.72-20.88-20.72-35.35,0-6.8,1.94-13.87,5.77-21.01l.27-.44c9.14-12.76,20.61-19.23,34.11-19.23,9.61,0,18.24,2.98,25.66,8.87l.14.12c10.08,8.79,15.19,19.03,15.19,30.44v2.39c0,7.59-2.58,15.14-7.68,22.44l-.12.16c-8.59,11.1-19.58,16.72-32.67,16.72Zm-15.77-11.93c5.23,2.61,10.53,3.94,15.77,3.94,10.61,0,19.21-4.43,26.29-13.54,4.11-5.91,6.19-11.9,6.19-17.79v-2.39c0-9.1-4.05-17.07-12.38-24.36-6.03-4.76-12.78-7.08-20.62-7.08-10.85,0-19.84,5.13-27.46,15.68-3.12,5.89-4.7,11.6-4.7,17,0,11.7,5.53,21.03,16.92,28.54Z"/>
        </g>
      </g>
      <g>
        <path class="cls-5" d="m440.52,36.08l.5.34c3.4,2.31,5.04,6,4.91,11.07-.3,2.07-.9,3.77-1.82,5.12l-.3.44c-1.77,2.6-5.06,4.51-9.87,5.73-11.97,4.08-18.86,6.31-20.65,6.69-3.33.38-6.12-.2-8.39-1.74l-.44-.3c-3.4-2.31-5.04-6-4.91-11.07.3-2.07.9-3.77,1.82-5.12l.43-.63c1.71-2.52,4.97-4.39,9.78-5.6,11.66-3.98,18.51-6.21,20.54-6.67,3.28-.41,6.08.17,8.39,1.74Z"/>
        <path class="cls-5" d="m421.95,27.23c.32,2.06.78,9.24,1.38,21.55.65,4.92.12,8.64-1.59,11.16l-.43.63c-.91,1.34-2.27,2.54-4.09,3.58-4.66,1.99-8.7,1.83-12.1-.48l-.44-.3c-2.27-1.54-3.84-3.92-4.71-7.16-.31-1.8-.78-9.02-1.4-21.66-.65-4.92-.09-8.68,1.68-11.28l.3-.44c.91-1.34,2.27-2.54,4.09-3.58,4.66-1.99,8.7-1.83,12.1.48l.5.34c2.31,1.57,3.88,3.95,4.71,7.16Z"/>
      </g>
    </g>
  </g>
</svg>