<?xml version="1.0" encoding="utf-8"?>
<!-- Generator: Adobe Illustrator 28.0.0, SVG Export Plug-In . SVG Version: 6.00 Build 0)  -->
<svg version="1.1" id="Capa_1" xmlns="http://www.w3.org/2000/svg" xmlns:xlink="http://www.w3.org/1999/xlink" x="0px" y="0px"
	 viewBox="0 0 534 602" style="enable-background:new 0 0 534 602;" xml:space="preserve">
<style type="text/css">
	.st0{fill:none;stroke:#000000;}
</style>
<g>
	<path class="st0" d="M319.2,428.8c-1.9,0.3-2.2,0.8-1.7,2.9c0.4,1.6,0.3,2.3-0.4,1.9c-0.6-0.3-2-0.1-3.1,0.5
		c-1.6,0.8-2.4,0.8-3.5-0.1c-0.8-0.6-1.2-1.5-0.9-2c0.9-1.4-2.3-3.1-4.9-2.6c-3.6,0.7-4.8,1.6-4.2,3.2c0.4,1.1-0.6,4.7-2,7.2
		c-0.1,0.2-0.9,0-1.8-0.4c-0.9-0.3-1.6-1.7-1.6-3c0-1.9-0.4-2.2-2.2-1.9c-1.2,0.2-2.6-0.1-3.1-0.8c-0.7-1-1-1-1.4,0.1
		c-0.4,0.9-1.3,0.5-3-1.4c-1.8-2-2.8-2.4-3.6-1.5c-0.8,0.8-0.8,1.4,0,2.3c0.6,0.6,0.9,1.7,0.6,2.4c-0.3,0.7,0.2,2.7,1.1,4.4
		c0.9,1.7,1.1,3.1,0.6,3.1c-0.6,0-1,0.7-1,1.6c0,0.9-0.5,1.3-1.2,0.8c-0.8-0.5-1,0-0.6,1.4c0.3,1.2,0.1,2.2-0.5,2.2
		c-0.6,0-0.4,0.9,0.3,2.2c1.2,2,1.5,4.1,0.9,5.8c-0.1,0.3-0.3,1.5-0.4,2.8c-0.2,2.2-0.1,2.2,2.2,0.7c1.7-1.1,2.8-1.3,3.7-0.5
		c0.7,0.6,1.5,0.8,1.8,0.5c0.3-0.3,1.1,0.8,1.8,2.5c0.7,1.7,1.7,2.8,2.1,2.5c0.5-0.3,1.2,0.2,1.5,1c0.3,0.9,1.1,1.6,1.8,1.6
		c0.7,0,2.2,1.1,3.5,2.4c2.3,2.4,3.6,2.7,5.8,1.3c0.6-0.4,1.4-0.4,1.7,0.1c0.8,1.3,5.2,0.6,4.9-0.7c-0.1-0.6,0.4-1.1,1.2-1.1
		c1.5,0,3.3-4.5,3.9-9.8c0.3-2.6,0-3.2-1.4-3.2c-1,0-2.3-0.8-2.8-1.7c-1.4-2.4,2.1-6.9,5.9-7.8c1.6-0.4,3-1.1,3-1.5
		c0-0.5,0.6-0.7,1.4-0.4c2.1,0.8,2.9-4.2,1.5-10C323.4,429.6,322.3,428.3,319.2,428.8"/>
</g>
</svg>
